<mxfile host="app.diagrams.net" agent="Mozilla/5.0 (X11; Ubuntu; Linux x86_64; rv:143.0) Gecko/20100101 Firefox/143.0" version="28.2.5">
  <diagram name="Seite-1" id="tv3RCUC1lsHie5otSo7a">
    <mxGraphModel dx="1678" dy="972" grid="1" gridSize="10" guides="1" tooltips="1" connect="1" arrows="1" fold="1" page="1" pageScale="1" pageWidth="827" pageHeight="1169" math="0" shadow="0">
      <root>
        <mxCell id="0" />
        <mxCell id="1" parent="0" />
        <mxCell id="RG_ibap2kgqLSs5oj8Kn-61" value="&amp;lt;&amp;lt;interface&amp;gt;&amp;gt;&lt;br&gt;&lt;b&gt;AccountService&lt;/b&gt;&lt;div&gt;&lt;br/&gt;&lt;/div&gt;" style="swimlane;fontStyle=0;align=center;verticalAlign=top;childLayout=stackLayout;horizontal=1;startSize=40;horizontalStack=0;resizeParent=1;resizeParentMax=0;resizeLast=0;collapsible=0;marginBottom=0;html=1;whiteSpace=wrap;" vertex="1" parent="1">
          <mxGeometry x="390" y="20" width="320" height="90" as="geometry" />
        </mxCell>
        <mxCell id="RG_ibap2kgqLSs5oj8Kn-62" value="" style="line;strokeWidth=1;fillColor=none;align=left;verticalAlign=middle;spacingTop=-1;spacingLeft=3;spacingRight=3;rotatable=0;labelPosition=right;points=[];portConstraint=eastwest;" vertex="1" parent="RG_ibap2kgqLSs5oj8Kn-61">
          <mxGeometry y="40" width="320" height="8" as="geometry" />
        </mxCell>
        <mxCell id="RG_ibap2kgqLSs5oj8Kn-93" value="getAccounts(Comparator&amp;lt;Account&amp;gt;, UUID, &lt;span style=&quot;white-space: pre;&quot;&gt;&#x9;&lt;/span&gt;Set&amp;lt;AccountState&amp;gt;, String): List&amp;lt;Account&amp;gt;" style="text;html=1;strokeColor=none;fillColor=none;align=left;verticalAlign=middle;spacingLeft=4;spacingRight=4;overflow=hidden;rotatable=0;points=[[0,0.5],[1,0.5]];portConstraint=eastwest;whiteSpace=wrap;" vertex="1" parent="RG_ibap2kgqLSs5oj8Kn-61">
          <mxGeometry y="48" width="320" height="42" as="geometry" />
        </mxCell>
        <mxCell id="RG_ibap2kgqLSs5oj8Kn-64" value="&amp;lt;&amp;lt;interface&amp;gt;&amp;gt;&lt;br&gt;&lt;b&gt;AuthenticationService&lt;/b&gt;&lt;div&gt;&lt;br&gt;&lt;/div&gt;" style="swimlane;fontStyle=0;align=center;verticalAlign=top;childLayout=stackLayout;horizontal=1;startSize=40;horizontalStack=0;resizeParent=1;resizeParentMax=0;resizeLast=0;collapsible=0;marginBottom=0;html=1;whiteSpace=wrap;" vertex="1" parent="1">
          <mxGeometry x="390" y="590" width="410" height="220" as="geometry" />
        </mxCell>
        <mxCell id="RG_ibap2kgqLSs5oj8Kn-65" value="" style="line;strokeWidth=1;fillColor=none;align=left;verticalAlign=middle;spacingTop=-1;spacingLeft=3;spacingRight=3;rotatable=0;labelPosition=right;points=[];portConstraint=eastwest;" vertex="1" parent="RG_ibap2kgqLSs5oj8Kn-64">
          <mxGeometry y="40" width="410" height="8" as="geometry" />
        </mxCell>
        <mxCell id="RG_ibap2kgqLSs5oj8Kn-66" value="authenticateWithCredentials(String, String, String): Optional&amp;lt;Account&amp;gt;" style="text;html=1;strokeColor=none;fillColor=none;align=left;verticalAlign=middle;spacingLeft=4;spacingRight=4;overflow=hidden;rotatable=0;points=[[0,0.5],[1,0.5]];portConstraint=eastwest;whiteSpace=wrap;" vertex="1" parent="RG_ibap2kgqLSs5oj8Kn-64">
          <mxGeometry y="48" width="410" height="20" as="geometry" />
        </mxCell>
        <mxCell id="RG_ibap2kgqLSs5oj8Kn-67" value="authenticateWithJwt(String): Optional&amp;lt;Account&amp;gt;" style="text;html=1;strokeColor=none;fillColor=none;align=left;verticalAlign=middle;spacingLeft=4;spacingRight=4;overflow=hidden;rotatable=0;points=[[0,0.5],[1,0.5]];portConstraint=eastwest;whiteSpace=wrap;" vertex="1" parent="RG_ibap2kgqLSs5oj8Kn-64">
          <mxGeometry y="68" width="410" height="20" as="geometry" />
        </mxCell>
        <mxCell id="RG_ibap2kgqLSs5oj8Kn-68" value="authenticateWithRefreshToken(UUID): Optional&amp;lt;Account&amp;gt;" style="text;html=1;strokeColor=none;fillColor=none;align=left;verticalAlign=middle;spacingLeft=4;spacingRight=4;overflow=hidden;rotatable=0;points=[[0,0.5],[1,0.5]];portConstraint=eastwest;whiteSpace=wrap;" vertex="1" parent="RG_ibap2kgqLSs5oj8Kn-64">
          <mxGeometry y="88" width="410" height="20" as="geometry" />
        </mxCell>
        <mxCell id="RG_ibap2kgqLSs5oj8Kn-69" value="createAccessToken(UUID): String throws NotFoundException" style="text;html=1;strokeColor=none;fillColor=none;align=left;verticalAlign=middle;spacingLeft=4;spacingRight=4;overflow=hidden;rotatable=0;points=[[0,0.5],[1,0.5]];portConstraint=eastwest;whiteSpace=wrap;" vertex="1" parent="RG_ibap2kgqLSs5oj8Kn-64">
          <mxGeometry y="108" width="410" height="20" as="geometry" />
        </mxCell>
        <mxCell id="RG_ibap2kgqLSs5oj8Kn-70" value="createRefreshToken(UUID): UUID throws NotFoundException" style="text;html=1;strokeColor=none;fillColor=none;align=left;verticalAlign=middle;spacingLeft=4;spacingRight=4;overflow=hidden;rotatable=0;points=[[0,0.5],[1,0.5]];portConstraint=eastwest;whiteSpace=wrap;" vertex="1" parent="RG_ibap2kgqLSs5oj8Kn-64">
          <mxGeometry y="128" width="410" height="20" as="geometry" />
        </mxCell>
        <mxCell id="RG_ibap2kgqLSs5oj8Kn-71" value="createAccount(String, String, String, int, boolean, boolean, boolean): &lt;span style=&quot;white-space: pre;&quot;&gt;&#x9;&lt;/span&gt;Account throws NotUniqueException,&amp;nbsp;OperationDisabledException" style="text;html=1;strokeColor=none;fillColor=none;align=left;verticalAlign=middle;spacingLeft=4;spacingRight=4;overflow=hidden;rotatable=0;points=[[0,0.5],[1,0.5]];portConstraint=eastwest;whiteSpace=wrap;" vertex="1" parent="RG_ibap2kgqLSs5oj8Kn-64">
          <mxGeometry y="148" width="410" height="32" as="geometry" />
        </mxCell>
        <mxCell id="RG_ibap2kgqLSs5oj8Kn-72" value="requestEmailVerification(UUID) throws NotFoundException" style="text;html=1;strokeColor=none;fillColor=none;align=left;verticalAlign=middle;spacingLeft=4;spacingRight=4;overflow=hidden;rotatable=0;points=[[0,0.5],[1,0.5]];portConstraint=eastwest;whiteSpace=wrap;" vertex="1" parent="RG_ibap2kgqLSs5oj8Kn-64">
          <mxGeometry y="180" width="410" height="20" as="geometry" />
        </mxCell>
        <mxCell id="RG_ibap2kgqLSs5oj8Kn-73" value="validateEmail(UUID): Account throws InvalidTokenException" style="text;html=1;strokeColor=none;fillColor=none;align=left;verticalAlign=middle;spacingLeft=4;spacingRight=4;overflow=hidden;rotatable=0;points=[[0,0.5],[1,0.5]];portConstraint=eastwest;whiteSpace=wrap;" vertex="1" parent="RG_ibap2kgqLSs5oj8Kn-64">
          <mxGeometry y="200" width="410" height="20" as="geometry" />
        </mxCell>
        <mxCell id="RG_ibap2kgqLSs5oj8Kn-74" value="&amp;lt;&amp;lt;interface&amp;gt;&amp;gt;&lt;br&gt;&lt;b&gt;ReplicService&lt;/b&gt;&lt;div&gt;&lt;br&gt;&lt;/div&gt;" style="swimlane;fontStyle=0;align=center;verticalAlign=top;childLayout=stackLayout;horizontal=1;startSize=40;horizontalStack=0;resizeParent=1;resizeParentMax=0;resizeLast=0;collapsible=0;marginBottom=0;html=1;whiteSpace=wrap;" vertex="1" parent="1">
          <mxGeometry x="390" y="140" width="410" height="180" as="geometry" />
        </mxCell>
        <mxCell id="RG_ibap2kgqLSs5oj8Kn-75" value="" style="line;strokeWidth=1;fillColor=none;align=left;verticalAlign=middle;spacingTop=-1;spacingLeft=3;spacingRight=3;rotatable=0;labelPosition=right;points=[];portConstraint=eastwest;" vertex="1" parent="RG_ibap2kgqLSs5oj8Kn-74">
          <mxGeometry y="40" width="410" height="8" as="geometry" />
        </mxCell>
        <mxCell id="RG_ibap2kgqLSs5oj8Kn-76" value="&lt;div&gt;createReplic(URL, MediaMode, String, Instant, String, Account, &lt;span style=&quot;white-space: pre;&quot;&gt;&#x9;&lt;/span&gt;FileWriterCallback): Replic throws&amp;nbsp;&lt;span style=&quot;white-space: pre;&quot;&gt;ReplicQuotaMetException, &lt;/span&gt;&lt;/div&gt;&lt;div&gt;&lt;span style=&quot;white-space: pre;&quot;&gt;&lt;span style=&quot;white-space: pre;&quot;&gt;&#x9;&lt;/span&gt;ReplicContentWriteException, InvalidExpirationException&lt;/span&gt;&lt;/div&gt;" style="text;html=1;strokeColor=none;fillColor=none;align=left;verticalAlign=middle;spacingLeft=4;spacingRight=4;overflow=hidden;rotatable=0;points=[[0,0.5],[1,0.5]];portConstraint=eastwest;whiteSpace=wrap;" vertex="1" parent="RG_ibap2kgqLSs5oj8Kn-74">
          <mxGeometry y="48" width="410" height="52" as="geometry" />
        </mxCell>
        <mxCell id="RG_ibap2kgqLSs5oj8Kn-77" value="getReplics(Comparator&amp;lt;Replic&amp;gt;, UUID, UUID, Set&amp;lt;ReplicState&amp;gt;, String): List&amp;lt;Replic&amp;gt;" style="text;html=1;strokeColor=none;fillColor=none;align=left;verticalAlign=middle;spacingLeft=4;spacingRight=4;overflow=hidden;rotatable=0;points=[[0,0.5],[1,0.5]];portConstraint=eastwest;whiteSpace=wrap;" vertex="1" parent="RG_ibap2kgqLSs5oj8Kn-74">
          <mxGeometry y="100" width="410" height="20" as="geometry" />
        </mxCell>
        <mxCell id="RG_ibap2kgqLSs5oj8Kn-78" value="setReplicState(UUID, ReplicState): Replic throws NotFoundException" style="text;html=1;strokeColor=none;fillColor=none;align=left;verticalAlign=middle;spacingLeft=4;spacingRight=4;overflow=hidden;rotatable=0;points=[[0,0.5],[1,0.5]];portConstraint=eastwest;whiteSpace=wrap;" vertex="1" parent="RG_ibap2kgqLSs5oj8Kn-74">
          <mxGeometry y="120" width="410" height="20" as="geometry" />
        </mxCell>
        <mxCell id="RG_ibap2kgqLSs5oj8Kn-79" value="visitReplic(UUID, UUID): ReplicAccess throws NotFoundException" style="text;html=1;strokeColor=none;fillColor=none;align=left;verticalAlign=middle;spacingLeft=4;spacingRight=4;overflow=hidden;rotatable=0;points=[[0,0.5],[1,0.5]];portConstraint=eastwest;whiteSpace=wrap;" vertex="1" parent="RG_ibap2kgqLSs5oj8Kn-74">
          <mxGeometry y="140" width="410" height="20" as="geometry" />
        </mxCell>
        <mxCell id="RG_ibap2kgqLSs5oj8Kn-80" value="receiveContent(UUID): InputStream throws NotFoundException" style="text;html=1;strokeColor=none;fillColor=none;align=left;verticalAlign=middle;spacingLeft=4;spacingRight=4;overflow=hidden;rotatable=0;points=[[0,0.5],[1,0.5]];portConstraint=eastwest;whiteSpace=wrap;" vertex="1" parent="RG_ibap2kgqLSs5oj8Kn-74">
          <mxGeometry y="160" width="410" height="20" as="geometry" />
        </mxCell>
        <mxCell id="RG_ibap2kgqLSs5oj8Kn-81" value="&amp;lt;&amp;lt;interface&amp;gt;&amp;gt;&lt;br&gt;&lt;b&gt;ReportService&lt;/b&gt;&lt;div&gt;&lt;br&gt;&lt;/div&gt;" style="swimlane;fontStyle=0;align=center;verticalAlign=top;childLayout=stackLayout;horizontal=1;startSize=40;horizontalStack=0;resizeParent=1;resizeParentMax=0;resizeLast=0;collapsible=0;marginBottom=0;html=1;whiteSpace=wrap;" vertex="1" parent="1">
          <mxGeometry x="390" y="335" width="344.5" height="110" as="geometry" />
        </mxCell>
        <mxCell id="RG_ibap2kgqLSs5oj8Kn-82" value="" style="line;strokeWidth=1;fillColor=none;align=left;verticalAlign=middle;spacingTop=-1;spacingLeft=3;spacingRight=3;rotatable=0;labelPosition=right;points=[];portConstraint=eastwest;" vertex="1" parent="RG_ibap2kgqLSs5oj8Kn-81">
          <mxGeometry y="40" width="344.5" height="8" as="geometry" />
        </mxCell>
        <mxCell id="RG_ibap2kgqLSs5oj8Kn-83" value="getReports(Comparator&amp;lt;Report&amp;gt;, String): List&amp;lt;Report&amp;gt;" style="text;html=1;strokeColor=none;fillColor=none;align=left;verticalAlign=middle;spacingLeft=4;spacingRight=4;overflow=hidden;rotatable=0;points=[[0,0.5],[1,0.5]];portConstraint=eastwest;whiteSpace=wrap;" vertex="1" parent="RG_ibap2kgqLSs5oj8Kn-81">
          <mxGeometry y="48" width="344.5" height="22" as="geometry" />
        </mxCell>
        <mxCell id="RG_ibap2kgqLSs5oj8Kn-84" value="reportReplic(UUID, UUID, String): Report throws &lt;span style=&quot;white-space: pre;&quot;&gt;&#x9;&lt;/span&gt;NotFoundException, OperationDisabledException" style="text;html=1;strokeColor=none;fillColor=none;align=left;verticalAlign=middle;spacingLeft=4;spacingRight=4;overflow=hidden;rotatable=0;points=[[0,0.5],[1,0.5]];portConstraint=eastwest;whiteSpace=wrap;" vertex="1" parent="RG_ibap2kgqLSs5oj8Kn-81">
          <mxGeometry y="70" width="344.5" height="40" as="geometry" />
        </mxCell>
        <mxCell id="RG_ibap2kgqLSs5oj8Kn-85" value="&amp;lt;&amp;lt;interface&amp;gt;&amp;gt;&lt;br&gt;&lt;b&gt;ServerConfigService&lt;/b&gt;&lt;div&gt;&lt;br&gt;&lt;/div&gt;" style="swimlane;fontStyle=0;align=center;verticalAlign=top;childLayout=stackLayout;horizontal=1;startSize=40;horizontalStack=0;resizeParent=1;resizeParentMax=0;resizeLast=0;collapsible=0;marginBottom=0;html=1;whiteSpace=wrap;" vertex="1" parent="1">
          <mxGeometry x="390" y="470" width="195.5" height="90" as="geometry" />
        </mxCell>
        <mxCell id="RG_ibap2kgqLSs5oj8Kn-86" value="" style="line;strokeWidth=1;fillColor=none;align=left;verticalAlign=middle;spacingTop=-1;spacingLeft=3;spacingRight=3;rotatable=0;labelPosition=right;points=[];portConstraint=eastwest;" vertex="1" parent="RG_ibap2kgqLSs5oj8Kn-85">
          <mxGeometry y="40" width="195.5" height="8" as="geometry" />
        </mxCell>
        <mxCell id="RG_ibap2kgqLSs5oj8Kn-87" value="get(): ServerConfig)" style="text;html=1;strokeColor=none;fillColor=none;align=left;verticalAlign=middle;spacingLeft=4;spacingRight=4;overflow=hidden;rotatable=0;points=[[0,0.5],[1,0.5]];portConstraint=eastwest;whiteSpace=wrap;" vertex="1" parent="RG_ibap2kgqLSs5oj8Kn-85">
          <mxGeometry y="48" width="195.5" height="22" as="geometry" />
        </mxCell>
        <mxCell id="RG_ibap2kgqLSs5oj8Kn-88" value="save(ServerConfig)" style="text;html=1;strokeColor=none;fillColor=none;align=left;verticalAlign=middle;spacingLeft=4;spacingRight=4;overflow=hidden;rotatable=0;points=[[0,0.5],[1,0.5]];portConstraint=eastwest;whiteSpace=wrap;" vertex="1" parent="RG_ibap2kgqLSs5oj8Kn-85">
          <mxGeometry y="70" width="195.5" height="20" as="geometry" />
        </mxCell>
        <mxCell id="RG_ibap2kgqLSs5oj8Kn-99" style="edgeStyle=orthogonalEdgeStyle;rounded=0;orthogonalLoop=1;jettySize=auto;html=1;endArrow=block;endFill=0;" edge="1" parent="1" source="RG_ibap2kgqLSs5oj8Kn-89" target="RG_ibap2kgqLSs5oj8Kn-61">
          <mxGeometry relative="1" as="geometry" />
        </mxCell>
        <mxCell id="RG_ibap2kgqLSs5oj8Kn-89" value="&lt;b&gt;AccountServiceImpl&lt;/b&gt;&lt;div&gt;&lt;br&gt;&lt;/div&gt;" style="swimlane;fontStyle=0;align=center;verticalAlign=top;childLayout=stackLayout;horizontal=1;startSize=30;horizontalStack=0;resizeParent=1;resizeParentMax=0;resizeLast=0;collapsible=0;marginBottom=0;html=1;whiteSpace=wrap;" vertex="1" parent="1">
          <mxGeometry x="50" y="36" width="230" height="58" as="geometry" />
        </mxCell>
        <mxCell id="RG_ibap2kgqLSs5oj8Kn-63" value="accountRepo: AccountRepository" style="text;html=1;strokeColor=none;fillColor=none;align=left;verticalAlign=middle;spacingLeft=4;spacingRight=4;overflow=hidden;rotatable=0;points=[[0,0.5],[1,0.5]];portConstraint=eastwest;whiteSpace=wrap;" vertex="1" parent="RG_ibap2kgqLSs5oj8Kn-89">
          <mxGeometry y="30" width="230" height="20" as="geometry" />
        </mxCell>
        <mxCell id="RG_ibap2kgqLSs5oj8Kn-90" value="" style="line;strokeWidth=1;fillColor=none;align=left;verticalAlign=middle;spacingTop=-1;spacingLeft=3;spacingRight=3;rotatable=0;labelPosition=right;points=[];portConstraint=eastwest;" vertex="1" parent="RG_ibap2kgqLSs5oj8Kn-89">
          <mxGeometry y="50" width="230" height="8" as="geometry" />
        </mxCell>
        <mxCell id="RG_ibap2kgqLSs5oj8Kn-100" style="edgeStyle=orthogonalEdgeStyle;rounded=0;orthogonalLoop=1;jettySize=auto;html=1;endArrow=block;endFill=0;" edge="1" parent="1" source="RG_ibap2kgqLSs5oj8Kn-94" target="RG_ibap2kgqLSs5oj8Kn-74">
          <mxGeometry relative="1" as="geometry" />
        </mxCell>
        <mxCell id="RG_ibap2kgqLSs5oj8Kn-94" value="&lt;b&gt;ReplicServiceImpl&lt;/b&gt;" style="swimlane;fontStyle=0;align=center;verticalAlign=top;childLayout=stackLayout;horizontal=1;startSize=30;horizontalStack=0;resizeParent=1;resizeParentMax=0;resizeLast=0;collapsible=0;marginBottom=0;html=1;whiteSpace=wrap;" vertex="1" parent="1">
          <mxGeometry x="40" y="171" width="250" height="118" as="geometry" />
        </mxCell>
        <mxCell id="RG_ibap2kgqLSs5oj8Kn-95" value="replicRepo: ReplicRepository" style="text;html=1;strokeColor=none;fillColor=none;align=left;verticalAlign=middle;spacingLeft=4;spacingRight=4;overflow=hidden;rotatable=0;points=[[0,0.5],[1,0.5]];portConstraint=eastwest;whiteSpace=wrap;" vertex="1" parent="RG_ibap2kgqLSs5oj8Kn-94">
          <mxGeometry y="30" width="250" height="20" as="geometry" />
        </mxCell>
        <mxCell id="RG_ibap2kgqLSs5oj8Kn-97" value="replicAccessRepo: ReplicAccessRepository" style="text;html=1;strokeColor=none;fillColor=none;align=left;verticalAlign=middle;spacingLeft=4;spacingRight=4;overflow=hidden;rotatable=0;points=[[0,0.5],[1,0.5]];portConstraint=eastwest;whiteSpace=wrap;" vertex="1" parent="RG_ibap2kgqLSs5oj8Kn-94">
          <mxGeometry y="50" width="250" height="20" as="geometry" />
        </mxCell>
        <mxCell id="RG_ibap2kgqLSs5oj8Kn-98" value="fileAccessor: ReplicFileAccessor" style="text;html=1;strokeColor=none;fillColor=none;align=left;verticalAlign=middle;spacingLeft=4;spacingRight=4;overflow=hidden;rotatable=0;points=[[0,0.5],[1,0.5]];portConstraint=eastwest;whiteSpace=wrap;" vertex="1" parent="RG_ibap2kgqLSs5oj8Kn-94">
          <mxGeometry y="70" width="250" height="20" as="geometry" />
        </mxCell>
        <mxCell id="RG_ibap2kgqLSs5oj8Kn-109" value="configService: ServerConfigService" style="text;html=1;strokeColor=none;fillColor=none;align=left;verticalAlign=middle;spacingLeft=4;spacingRight=4;overflow=hidden;rotatable=0;points=[[0,0.5],[1,0.5]];portConstraint=eastwest;whiteSpace=wrap;" vertex="1" parent="RG_ibap2kgqLSs5oj8Kn-94">
          <mxGeometry y="90" width="250" height="20" as="geometry" />
        </mxCell>
        <mxCell id="RG_ibap2kgqLSs5oj8Kn-96" value="" style="line;strokeWidth=1;fillColor=none;align=left;verticalAlign=middle;spacingTop=-1;spacingLeft=3;spacingRight=3;rotatable=0;labelPosition=right;points=[];portConstraint=eastwest;" vertex="1" parent="RG_ibap2kgqLSs5oj8Kn-94">
          <mxGeometry y="110" width="250" height="8" as="geometry" />
        </mxCell>
        <mxCell id="RG_ibap2kgqLSs5oj8Kn-106" style="edgeStyle=orthogonalEdgeStyle;rounded=0;orthogonalLoop=1;jettySize=auto;html=1;endArrow=block;endFill=0;" edge="1" parent="1" source="RG_ibap2kgqLSs5oj8Kn-101" target="RG_ibap2kgqLSs5oj8Kn-81">
          <mxGeometry relative="1" as="geometry" />
        </mxCell>
        <mxCell id="RG_ibap2kgqLSs5oj8Kn-101" value="&lt;b&gt;ReportServiceImpl&lt;/b&gt;" style="swimlane;fontStyle=0;align=center;verticalAlign=top;childLayout=stackLayout;horizontal=1;startSize=30;horizontalStack=0;resizeParent=1;resizeParentMax=0;resizeLast=0;collapsible=0;marginBottom=0;html=1;whiteSpace=wrap;" vertex="1" parent="1">
          <mxGeometry x="40" y="341" width="250" height="98" as="geometry" />
        </mxCell>
        <mxCell id="RG_ibap2kgqLSs5oj8Kn-102" value="reportRepo: ReportRepository" style="text;html=1;strokeColor=none;fillColor=none;align=left;verticalAlign=middle;spacingLeft=4;spacingRight=4;overflow=hidden;rotatable=0;points=[[0,0.5],[1,0.5]];portConstraint=eastwest;whiteSpace=wrap;" vertex="1" parent="RG_ibap2kgqLSs5oj8Kn-101">
          <mxGeometry y="30" width="250" height="20" as="geometry" />
        </mxCell>
        <mxCell id="RG_ibap2kgqLSs5oj8Kn-107" value="replicRepo: ReplicRepository" style="text;html=1;strokeColor=none;fillColor=none;align=left;verticalAlign=middle;spacingLeft=4;spacingRight=4;overflow=hidden;rotatable=0;points=[[0,0.5],[1,0.5]];portConstraint=eastwest;whiteSpace=wrap;" vertex="1" parent="RG_ibap2kgqLSs5oj8Kn-101">
          <mxGeometry y="50" width="250" height="20" as="geometry" />
        </mxCell>
        <mxCell id="RG_ibap2kgqLSs5oj8Kn-108" value="configService: ServerConfigService" style="text;html=1;strokeColor=none;fillColor=none;align=left;verticalAlign=middle;spacingLeft=4;spacingRight=4;overflow=hidden;rotatable=0;points=[[0,0.5],[1,0.5]];portConstraint=eastwest;whiteSpace=wrap;" vertex="1" parent="RG_ibap2kgqLSs5oj8Kn-101">
          <mxGeometry y="70" width="250" height="20" as="geometry" />
        </mxCell>
        <mxCell id="RG_ibap2kgqLSs5oj8Kn-105" value="" style="line;strokeWidth=1;fillColor=none;align=left;verticalAlign=middle;spacingTop=-1;spacingLeft=3;spacingRight=3;rotatable=0;labelPosition=right;points=[];portConstraint=eastwest;" vertex="1" parent="RG_ibap2kgqLSs5oj8Kn-101">
          <mxGeometry y="90" width="250" height="8" as="geometry" />
        </mxCell>
        <mxCell id="RG_ibap2kgqLSs5oj8Kn-125" style="edgeStyle=orthogonalEdgeStyle;rounded=0;orthogonalLoop=1;jettySize=auto;html=1;endArrow=block;endFill=0;" edge="1" parent="1" source="RG_ibap2kgqLSs5oj8Kn-110" target="RG_ibap2kgqLSs5oj8Kn-85">
          <mxGeometry relative="1" as="geometry" />
        </mxCell>
        <mxCell id="RG_ibap2kgqLSs5oj8Kn-110" value="&lt;b&gt;ServerConfigServiceImpl&lt;/b&gt;" style="swimlane;fontStyle=0;align=center;verticalAlign=top;childLayout=stackLayout;horizontal=1;startSize=30;horizontalStack=0;resizeParent=1;resizeParentMax=0;resizeLast=0;collapsible=0;marginBottom=0;html=1;whiteSpace=wrap;" vertex="1" parent="1">
          <mxGeometry x="40" y="486" width="250" height="58" as="geometry" />
        </mxCell>
        <mxCell id="RG_ibap2kgqLSs5oj8Kn-113" value="configRepo: ServerConfigRepository" style="text;html=1;strokeColor=none;fillColor=none;align=left;verticalAlign=middle;spacingLeft=4;spacingRight=4;overflow=hidden;rotatable=0;points=[[0,0.5],[1,0.5]];portConstraint=eastwest;whiteSpace=wrap;" vertex="1" parent="RG_ibap2kgqLSs5oj8Kn-110">
          <mxGeometry y="30" width="250" height="20" as="geometry" />
        </mxCell>
        <mxCell id="RG_ibap2kgqLSs5oj8Kn-114" value="" style="line;strokeWidth=1;fillColor=none;align=left;verticalAlign=middle;spacingTop=-1;spacingLeft=3;spacingRight=3;rotatable=0;labelPosition=right;points=[];portConstraint=eastwest;" vertex="1" parent="RG_ibap2kgqLSs5oj8Kn-110">
          <mxGeometry y="50" width="250" height="8" as="geometry" />
        </mxCell>
        <mxCell id="RG_ibap2kgqLSs5oj8Kn-124" style="edgeStyle=orthogonalEdgeStyle;rounded=0;orthogonalLoop=1;jettySize=auto;html=1;endArrow=block;endFill=0;" edge="1" parent="1" source="RG_ibap2kgqLSs5oj8Kn-115" target="RG_ibap2kgqLSs5oj8Kn-64">
          <mxGeometry relative="1" as="geometry" />
        </mxCell>
        <mxCell id="RG_ibap2kgqLSs5oj8Kn-115" value="&lt;b&gt;AuthenticationServiceImpl&lt;/b&gt;" style="swimlane;fontStyle=0;align=center;verticalAlign=top;childLayout=stackLayout;horizontal=1;startSize=30;horizontalStack=0;resizeParent=1;resizeParentMax=0;resizeLast=0;collapsible=0;marginBottom=0;html=1;whiteSpace=wrap;" vertex="1" parent="1">
          <mxGeometry x="40" y="611" width="250" height="178" as="geometry" />
        </mxCell>
        <mxCell id="RG_ibap2kgqLSs5oj8Kn-116" value="accountService: AccountService" style="text;html=1;strokeColor=none;fillColor=none;align=left;verticalAlign=middle;spacingLeft=4;spacingRight=4;overflow=hidden;rotatable=0;points=[[0,0.5],[1,0.5]];portConstraint=eastwest;whiteSpace=wrap;" vertex="1" parent="RG_ibap2kgqLSs5oj8Kn-115">
          <mxGeometry y="30" width="250" height="20" as="geometry" />
        </mxCell>
        <mxCell id="RG_ibap2kgqLSs5oj8Kn-118" value="tokenRepo: AuthTokenRepository" style="text;html=1;strokeColor=none;fillColor=none;align=left;verticalAlign=middle;spacingLeft=4;spacingRight=4;overflow=hidden;rotatable=0;points=[[0,0.5],[1,0.5]];portConstraint=eastwest;whiteSpace=wrap;" vertex="1" parent="RG_ibap2kgqLSs5oj8Kn-115">
          <mxGeometry y="50" width="250" height="20" as="geometry" />
        </mxCell>
        <mxCell id="RG_ibap2kgqLSs5oj8Kn-119" value="emailSender: EmailSender" style="text;html=1;strokeColor=none;fillColor=none;align=left;verticalAlign=middle;spacingLeft=4;spacingRight=4;overflow=hidden;rotatable=0;points=[[0,0.5],[1,0.5]];portConstraint=eastwest;whiteSpace=wrap;" vertex="1" parent="RG_ibap2kgqLSs5oj8Kn-115">
          <mxGeometry y="70" width="250" height="20" as="geometry" />
        </mxCell>
        <mxCell id="RG_ibap2kgqLSs5oj8Kn-120" value="configService: ServerConfigService" style="text;html=1;strokeColor=none;fillColor=none;align=left;verticalAlign=middle;spacingLeft=4;spacingRight=4;overflow=hidden;rotatable=0;points=[[0,0.5],[1,0.5]];portConstraint=eastwest;whiteSpace=wrap;" vertex="1" parent="RG_ibap2kgqLSs5oj8Kn-115">
          <mxGeometry y="90" width="250" height="20" as="geometry" />
        </mxCell>
        <mxCell id="RG_ibap2kgqLSs5oj8Kn-121" value="accessTokenExpiration: long" style="text;html=1;strokeColor=none;fillColor=none;align=left;verticalAlign=middle;spacingLeft=4;spacingRight=4;overflow=hidden;rotatable=0;points=[[0,0.5],[1,0.5]];portConstraint=eastwest;whiteSpace=wrap;" vertex="1" parent="RG_ibap2kgqLSs5oj8Kn-115">
          <mxGeometry y="110" width="250" height="20" as="geometry" />
        </mxCell>
        <mxCell id="RG_ibap2kgqLSs5oj8Kn-122" value="refreshTokenExpiration: long" style="text;html=1;strokeColor=none;fillColor=none;align=left;verticalAlign=middle;spacingLeft=4;spacingRight=4;overflow=hidden;rotatable=0;points=[[0,0.5],[1,0.5]];portConstraint=eastwest;whiteSpace=wrap;" vertex="1" parent="RG_ibap2kgqLSs5oj8Kn-115">
          <mxGeometry y="130" width="250" height="20" as="geometry" />
        </mxCell>
        <mxCell id="RG_ibap2kgqLSs5oj8Kn-123" value="accessTokenSecret: long" style="text;html=1;strokeColor=none;fillColor=none;align=left;verticalAlign=middle;spacingLeft=4;spacingRight=4;overflow=hidden;rotatable=0;points=[[0,0.5],[1,0.5]];portConstraint=eastwest;whiteSpace=wrap;" vertex="1" parent="RG_ibap2kgqLSs5oj8Kn-115">
          <mxGeometry y="150" width="250" height="20" as="geometry" />
        </mxCell>
        <mxCell id="RG_ibap2kgqLSs5oj8Kn-117" value="" style="line;strokeWidth=1;fillColor=none;align=left;verticalAlign=middle;spacingTop=-1;spacingLeft=3;spacingRight=3;rotatable=0;labelPosition=right;points=[];portConstraint=eastwest;" vertex="1" parent="RG_ibap2kgqLSs5oj8Kn-115">
          <mxGeometry y="170" width="250" height="8" as="geometry" />
        </mxCell>
      </root>
    </mxGraphModel>
  </diagram>
</mxfile>
